<svg width="111" height="110" viewBox="0 0 111 110" fill="none" xmlns="http://www.w3.org/2000/svg">
<g clip-path="url(#clip0_103_2)">
<path d="M54.8125 0C26.7808 2e-06 28.5312 12.1562 28.5312 12.1562L28.5625 24.75H55.3125V28.5312H17.9375C17.9375 28.5312 0 26.497 0 54.7812C-2e-06 83.0655 15.6562 82.0625 15.6562 82.0625H25V68.9375C25 68.9375 24.4963 53.2812 40.4062 53.2812C56.3161 53.2812 66.9375 53.2812 66.9375 53.2812C66.9375 53.2812 81.8438 53.5222 81.8438 38.875C81.8438 24.2278 81.8438 14.6562 81.8438 14.6562C81.8438 14.6562 84.1069 0 54.8125 0ZM40.0625 8.46875C42.7239 8.46875 44.875 10.6198 44.875 13.2812C44.875 15.9427 42.7239 18.0938 40.0625 18.0938C37.4011 18.0938 35.25 15.9427 35.25 13.2812C35.25 10.6198 37.4011 8.46875 40.0625 8.46875Z" fill="url(#paint0_linear_103_2)"/>
<path d="M55.6084 109.846C83.6401 109.846 81.8897 97.69 81.8897 97.69L81.8584 85.0962H55.1084V81.315H92.4834C92.4834 81.315 110.421 83.3492 110.421 55.0649C110.421 26.7807 94.7647 27.7837 94.7647 27.7837H85.4209V40.9087C85.4209 40.9087 85.9246 56.5649 70.0147 56.5649C54.1048 56.5649 43.4834 56.5649 43.4834 56.5649C43.4834 56.5649 28.5772 56.324 28.5772 70.9712C28.5772 85.6184 28.5772 95.19 28.5772 95.19C28.5772 95.19 26.314 109.846 55.6084 109.846ZM70.3584 101.377C67.697 101.377 65.5459 99.2264 65.5459 96.565C65.5459 93.9035 67.697 91.7525 70.3584 91.7525C73.0198 91.7525 75.1709 93.9035 75.1709 96.565C75.1709 99.2264 73.0198 101.377 70.3584 101.377Z" fill="url(#paint1_linear_103_2)"/>
</g>
<defs>
<linearGradient id="paint0_linear_103_2" x1="10.6117" y1="9.60153" x2="65.2117" y2="64.3842" gradientUnits="userSpaceOnUse">
<stop stop-color="#387EB8"/>
<stop offset="1" stop-color="#366994"/>
</linearGradient>
<linearGradient id="paint1_linear_103_2" x1="44.1991" y1="44.4519" x2="102.84" y2="100.633" gradientUnits="userSpaceOnUse">
<stop stop-color="#FFE052"/>
<stop offset="1" stop-color="#FFC331"/>
</linearGradient>
<clipPath id="clip0_103_2">
<rect width="110.421" height="109.846" fill="white"/>
</clipPath>
</defs>
</svg>
